# xmcd
#
# Track frame offsets: 
#        150
#        13481
#        28579
#        41624
#        53613
#        66019
#        79108
#        92537
#        104415
#        117156
#        130063
#        143655
#        155175
#        168418
#        177338
#        191841
#        204577
#        218353
#        230628
#        242097
#
# Disc length: 3405 seconds
#
# Revision: 0
# Processed by: cddbd v1.5.2PL0 Copyright (c) Steve Scherf et al.
# Submitted via: ExactAudioCopy v1.0b4
#
DISCID=150d4b14
DTITLE=201 Blues Hits - CD 4
DYEAR=2013
DGENRE=Blues
TTITLE0=Percy Mayfield - Are You Out There
TTITLE1=Jimmy Rodgers - Money, Marbles and Chalk
TTITLE2=Skip James - I'm So Glad
TTITLE3=Willie Nix - Truckin' Little Woman
TTITLE4=B.B. King - Sugar Mama
TTITLE5=Muddy Waters - Forty Days and Forty Nights
TTITLE6=Charley Patton - 34 Blues
TTITLE7=Elmore Elmo Nixon - Million Dollar Blues
TTITLE8=B.B. King - What Can I Do
TTITLE9=Willie Mahon - Poison Ivy
TTITLE10=Bobby Bland - No Blow No Show
TTITLE11=Smiley Lewis - I Hear You Knockin'
TTITLE12=B.B. King - Tomorrow Is Another Day
TTITLE13=Sonny Boy Williamson - Checkin' Up On My Baby
TTITLE14=Muddy Waters - Rock Me
TTITLE15=Elmore James - Standing At The Crossroads
TTITLE16=John Lee Hooker - House Rent Boogie
TTITLE17=John Brim - Be Careful What You Do
TTITLE18=B.B. King - Sweet Sixteen
TTITLE19=Brownie McGhee - Pawn Shop Blues
EXTD=
EXTT0=
EXTT1=
EXTT2=
EXTT3=
EXTT4=
EXTT5=
EXTT6=
EXTT7=
EXTT8=
EXTT9=
EXTT10=
EXTT11=
EXTT12=
EXTT13=
EXTT14=
EXTT15=
EXTT16=
EXTT17=
EXTT18=
EXTT19=
PLAYORDER=
